<svg width="140" height="40" viewBox="0 0 140 40" fill="none" xmlns="http://www.w3.org/2000/svg">
<path d="M18.164 0.281288C19.364 0.361288 20.4667 0.294621 21.6653 0.427955C22.708 0.555705 23.7074 0.920959 24.5867 1.49561C25.466 2.07025 26.2017 2.83898 26.7373 3.74262C29.0267 7.24395 30.252 11.1706 31.13 15.204C31.7222 17.7983 32.1623 20.425 32.448 23.0706C33.034 28.808 30.9707 33.6006 25.3527 36.3293C22.2373 37.8466 19.086 39.1913 15.5947 39.6173C14.2305 39.8444 12.8301 39.6884 11.5493 39.1669C10.2685 38.6454 9.15753 37.7787 8.34 36.6633C5.30467 32.8426 3.508 28.45 2.07333 23.8573C0.881513 20.2084 0.186379 16.4157 0.00666783 12.5813C-0.113332 9.13396 1.39133 6.56462 4.12 4.59462C7.68693 2.02075 11.9323 0.553151 16.3273 0.374621C16.8993 0.347955 17.472 0.307955 18.0313 0.281288H18.164Z" fill="white"/>
<path d="M23.3694 32.6426C23.5294 29.5273 23.7554 26.5059 23.8088 23.4706C23.8354 21.4706 22.6374 20.2759 20.6274 19.9299C18.3508 19.5439 16.2214 19.7173 14.3308 21.6473C14.5834 18.6253 14.8234 15.8433 15.0641 12.9679C13.5201 12.9679 12.1221 13.0213 10.7374 12.9546C9.89742 12.9139 9.68475 13.1666 9.65809 14.0053C9.51275 18.8113 9.31275 23.6299 9.09875 28.4359C9.03209 29.8199 8.88609 31.1913 8.77942 32.6959C10.2308 32.6959 11.5881 32.6426 12.9328 32.7093C13.7181 32.7493 13.8661 32.4426 13.9048 31.7373C13.951 29.9968 14.0845 28.2597 14.3048 26.5326C14.4504 25.7621 14.7842 25.0395 15.2768 24.4293C15.5656 24.0822 15.9594 23.8386 16.399 23.7353C16.8384 23.632 17.2996 23.6745 17.7128 23.8566C18.5914 24.1759 18.7908 24.9746 18.7514 25.8133C18.6848 27.1466 18.5781 28.4626 18.4848 29.7933C18.4181 30.7266 18.3248 31.6599 18.2321 32.6419L23.3694 32.6426Z" fill="#1F2A4A"/>
<path d="M24.3807 11.0407C24.3807 10.2553 24.354 9.62933 24.394 9.01733C24.4472 8.67073 24.3688 8.31673 24.1743 8.025C23.9798 7.73326 23.6831 7.5248 23.3427 7.44066C21.2127 6.63133 19.1227 5.73933 16.9927 4.914C16.5893 4.75059 16.1418 4.73175 15.726 4.86066C13.4514 5.73933 11.1887 6.658 8.93871 7.59C8.68604 7.69666 8.35271 7.99 8.32604 8.21533C8.25938 9.10733 8.29938 10.0153 8.29938 11.0107C9.96644 10.4535 11.5981 9.7956 13.1854 9.04066C15.3554 7.86933 17.3387 8.002 19.482 9.094C20.986 9.866 22.6367 10.3587 24.3807 11.0407Z" fill="#1F2A4A"/>
<path d="M96.998 29.4879H93.6967V17.8799H96.7853C96.852 18.1326 96.9187 18.3993 97.0113 18.7319C99.168 17.1746 101.205 17.1479 102.989 19.1579C103.675 18.6683 104.401 18.2364 105.158 17.8666C105.647 17.6572 106.177 17.5591 106.71 17.5791C107.242 17.5993 107.763 17.7372 108.235 17.9829C108.707 18.2287 109.119 18.5762 109.441 19.0004C109.763 19.4245 109.987 19.9149 110.097 20.4359C110.315 21.3925 110.427 22.3702 110.43 23.3513C110.483 25.3746 110.443 27.3979 110.443 29.4746H107.075C107.075 27.6373 107.089 25.8806 107.075 24.1099C107.087 23.54 107.051 22.9701 106.969 22.4059C106.954 22.0506 106.806 21.7137 106.555 21.4623C106.303 21.2107 105.966 21.0629 105.611 21.0479C105.225 21.0083 104.839 21.1129 104.527 21.3416C104.215 21.5703 103.999 21.9069 103.92 22.2859C103.801 22.7787 103.748 23.2852 103.763 23.7919C103.75 25.4426 103.737 27.0933 103.763 28.7306C103.777 29.3433 103.577 29.5826 102.951 29.5559C102.139 29.5159 101.314 29.5426 100.369 29.5426C100.369 28.2093 100.382 26.9866 100.369 25.7619C100.355 24.7499 100.369 23.7386 100.289 22.7266C100.209 21.6486 99.65 21.0599 98.8373 21.0359C98.6213 21.0305 98.406 21.068 98.2047 21.1461C98.0027 21.2243 97.8187 21.3416 97.6627 21.4913C97.506 21.6409 97.3813 21.82 97.2947 22.0182C97.208 22.2164 97.162 22.4297 97.158 22.6459C97.0247 23.8706 97.0247 25.1086 96.998 26.3466C96.9847 27.3579 96.998 28.3966 96.998 29.4879Z" fill="white"/>
<path d="M80.9568 29.4747H77.6154C77.6154 27.5713 77.6288 25.7473 77.6021 23.91C77.6481 23.3115 77.5761 22.7099 77.3894 22.1393C77.2834 21.8941 77.1248 21.6751 76.9248 21.4979C76.7241 21.3207 76.4881 21.1897 76.2314 21.114C75.9614 21.1029 75.6928 21.1563 75.4468 21.2697C75.2014 21.3831 74.9868 21.5531 74.8201 21.766C74.4888 22.3695 74.3201 23.0489 74.3301 23.7373C74.2634 25.6273 74.3034 27.518 74.3034 29.4747H70.9194C70.9194 27.6907 70.9328 25.96 70.9194 24.2167C70.9281 23.5841 70.8834 22.9518 70.7861 22.3267C70.7648 21.9888 70.6201 21.6704 70.3801 21.4322C70.1394 21.194 69.8194 21.0525 69.4814 21.0347C69.1281 20.9885 68.7701 21.0688 68.4708 21.2613C68.1708 21.4539 67.9488 21.7463 67.8441 22.0867C67.6548 22.6914 67.5521 23.3198 67.5381 23.9533C67.4981 25.444 67.5248 26.9353 67.5248 28.426C67.5248 28.7593 67.4981 29.1047 67.4848 29.4773H64.2634V17.88H67.2988C67.3654 18.1327 67.4321 18.426 67.4454 18.5053C68.4834 18.1356 69.5528 17.8593 70.6401 17.68C71.2294 17.6491 71.8154 17.7866 72.3294 18.0766C72.8434 18.3665 73.2641 18.7969 73.5421 19.3173C73.9728 18.8037 74.5074 18.3875 75.1108 18.096C75.7141 17.8046 76.3728 17.6446 77.0428 17.6267C77.8121 17.5671 78.5788 17.774 79.2141 18.2127C79.8488 18.6514 80.3134 19.2952 80.5301 20.036C80.7581 20.559 80.8934 21.1178 80.9301 21.6873C80.9834 24.256 80.9568 26.812 80.9568 29.4747Z" fill="white"/>
<path d="M49.754 29.5273C48.6873 29.5273 47.7706 29.5806 46.8653 29.4873C46.6653 29.474 46.3593 28.9946 46.3593 28.7286C46.306 27.2113 46.346 25.6933 46.3326 24.1626C46.3419 23.5598 46.2973 22.9574 46.1993 22.3626C46.1787 22.0082 46.0268 21.6741 45.7733 21.4255C45.5198 21.1769 45.1828 21.0316 44.828 21.018C44.4616 20.9613 44.0869 21.0343 43.7686 21.2244C43.4503 21.4146 43.2084 21.7098 43.0846 22.0593C42.8804 22.6558 42.768 23.2798 42.7513 23.91C42.7113 25.71 42.738 27.5173 42.738 29.5146C41.7126 29.5146 40.7146 29.5413 39.716 29.488C39.5693 29.4746 39.33 29.102 39.33 28.888C39.304 24.006 39.3173 19.1306 39.304 14.2453C39.304 13.7926 39.424 13.5266 39.9426 13.5393C40.8213 13.5526 41.7133 13.5393 42.6846 13.5393V18.7046C43.0573 18.4786 43.2706 18.3453 43.4966 18.212C45.9593 16.7453 48.7946 17.8786 49.434 20.6613C49.6387 21.7496 49.7367 22.8553 49.7266 23.9626C49.794 25.7866 49.754 27.584 49.754 29.5273Z" fill="white"/>
<path d="M116.618 29.6593C115.759 29.6674 114.917 29.4151 114.205 28.9357C113.493 28.4564 112.943 27.7724 112.627 26.974C112.113 25.9124 111.851 24.747 111.86 23.5679C111.869 22.3887 112.149 21.2275 112.679 20.174C113.045 19.4206 113.608 18.7802 114.309 18.3207C115.009 17.8534 115.832 17.6019 116.675 17.5973C117.6 17.6047 118.499 17.9054 119.243 18.4565C119.435 18.2246 119.679 18.0415 119.956 17.9224C120.233 17.8033 120.533 17.7515 120.833 17.7713C121.043 17.7713 121.26 17.7881 121.469 17.8047H121.475C121.688 17.8214 121.909 17.8385 122.125 17.8385C122.365 17.8431 122.605 17.8136 122.837 17.7507C122.851 17.884 122.869 18.0086 122.883 18.1073C122.91 18.2669 122.926 18.4283 122.931 18.59C122.931 19.3727 122.931 20.1713 122.931 20.944V21.4705C122.925 23.7919 122.918 26.1919 122.947 28.5739C122.987 28.8645 122.911 29.1591 122.735 29.3933C122.659 29.4598 122.571 29.5103 122.475 29.5417C122.38 29.5731 122.279 29.5849 122.179 29.576C122.089 29.5755 121.998 29.5694 121.908 29.5579C121.775 29.5445 121.642 29.5382 121.509 29.5393C121.419 29.5393 121.327 29.5393 121.241 29.5433H121.215C121.123 29.5433 121.029 29.5472 120.937 29.5472C120.875 29.5472 120.82 29.5472 120.767 29.5472H120.7C120.627 29.5472 120.551 29.5505 120.477 29.5539H120.467C120.383 29.5579 120.296 29.562 120.214 29.562C120.121 29.5748 120.026 29.5665 119.937 29.5379C119.847 29.5093 119.765 29.4611 119.697 29.3967C119.645 29.295 119.617 29.1829 119.613 29.0687C119.609 28.9545 119.631 28.8409 119.677 28.736C119.422 28.8393 119.179 28.9539 118.943 29.0653L118.935 29.0693C118.49 29.3093 118.013 29.4841 117.518 29.5885C117.221 29.6366 116.919 29.6603 116.618 29.6593ZM117.462 20.8347C117.421 20.8347 117.385 20.8347 117.351 20.8347C116.131 20.8887 115.395 21.9279 115.382 23.6159C115.342 24.3404 115.519 25.0604 115.893 25.6827C116.054 25.9237 116.271 26.1229 116.524 26.2635C116.778 26.4041 117.062 26.4821 117.351 26.4912H117.418C117.722 26.4975 118.023 26.4314 118.295 26.2982C118.569 26.165 118.806 25.9685 118.988 25.7253C119.405 25.1178 119.615 24.3919 119.587 23.6553C119.641 22.8285 119.367 22.014 118.823 21.3887C118.645 21.2092 118.433 21.0674 118.199 20.9719C117.965 20.8763 117.715 20.829 117.462 20.8327V20.8347Z" fill="white"/>
<path d="M56.7907 29.71C55.5266 29.7232 54.2993 29.2825 53.3324 28.4679C52.2097 27.4318 51.5244 26.0065 51.4164 24.4826C51.1297 21.8899 51.874 19.9285 53.6267 18.6518C54.5312 17.9742 55.63 17.6059 56.7601 17.6012C57.67 17.6171 58.5661 17.8213 59.393 18.2012C60.322 18.637 61.0803 19.3691 61.5479 20.2826C62.1003 21.3121 62.3847 22.4643 62.3747 23.6326C62.4051 24.7296 62.18 25.8186 61.7179 26.814C61.221 27.7954 60.4195 28.5892 59.4333 29.0765C58.6155 29.4953 57.7095 29.7126 56.7907 29.71ZM56.9099 20.8332C55.7259 20.8332 54.8865 21.8006 54.7712 23.3C54.694 24.0526 54.8466 24.811 55.2087 25.4752C55.3483 25.7451 55.5509 25.9774 55.7992 26.1525C56.0475 26.3276 56.3341 26.4404 56.6351 26.4812C56.7165 26.4886 56.7974 26.4925 56.8754 26.4925C58.1474 26.4925 58.9286 25.4698 59.0186 23.6865C58.9873 23.5345 58.958 23.3746 58.9333 23.2373V23.2312C58.8757 22.8571 58.7885 22.4882 58.6723 22.1279C58.5672 21.7595 58.3458 21.4348 58.0414 21.2021C57.7371 20.9695 57.3659 20.8413 56.9828 20.8366L56.9099 20.8332Z" fill="white"/>
<path d="M91.7659 29.5413C88.9172 29.5413 86.1352 29.5413 83.3526 29.528C83.1792 29.528 82.8332 29.3413 82.8466 29.2487C82.8546 28.3866 82.9666 27.5287 83.1799 26.6933C83.4759 26.0634 83.8612 25.4795 84.3246 24.96C83.5392 24.6693 83.0466 23.032 83.5132 22.4593C83.6526 22.3446 83.8259 22.279 84.0059 22.2727C84.3199 22.2327 84.6372 22.2327 84.9512 22.2727C86.0559 22.4593 86.7512 21.9667 87.2146 20.8347H83.0199V17.8933H91.5132C92.0859 19.56 91.3399 20.862 90.1132 22.1267C90.5259 22.22 90.8052 22.2867 91.1646 22.366V24.7087C89.7932 25.068 87.8366 24.03 87.3439 26.4527H91.7632L91.7659 29.5413Z" fill="white"/>
<path d="M138.957 26.386C139.224 27.2913 139.477 28.1567 139.729 28.9953C139.207 29.3899 138.593 29.6465 137.945 29.7415C137.297 29.8364 136.635 29.7666 136.021 29.5385C135.407 29.3104 134.86 28.9313 134.431 28.4363C134.002 27.9413 133.705 27.3463 133.566 26.706C133.464 26.1445 133.415 25.5747 133.419 25.004C133.406 21.804 133.406 18.612 133.406 15.3373H136.814V18.2927H138.997V21.3547H136.894C136.894 22.872 136.841 24.2833 136.921 25.6947C136.947 26.3733 137.48 26.6533 138.145 26.5613C138.385 26.5193 138.624 26.4527 138.957 26.386Z" fill="white"/>
<path d="M125.406 17.8533H128.547C128.614 18.226 128.667 18.5453 128.694 18.732C129.706 18.306 130.677 17.8933 131.836 17.4007V21.048C131.756 21.1013 131.703 21.168 131.649 21.168C129.639 21.1013 128.827 21.8467 128.761 24.2567C128.721 25.9607 128.747 27.678 128.747 29.4747H125.393C125.406 25.5873 125.406 21.7673 125.406 17.8533Z" fill="white"/>
</svg>
